<svg xmlns="http://www.w3.org/2000/svg" id="Layer_3" data-name="Layer 3" viewBox="125.26 416.75 900.02 295.13">
  <defs>
    <style>
      .cls-1 {
        fill: #fff;
      }
    </style>
  </defs>
  <path class="cls-1" d="M342.89,416.83h-24.31c-2.83,0-5.12,2.29-5.12,5.12v76.56c0,.25-.1.49-.28.67l-186.42,186.42c-.96.96-1.5,2.27-1.5,3.63v15.18c0,4.03,3.27,7.3,7.3,7.3h14.57c1.3,0,3.13-.75,4.05-1.68l160.66-160.66c.39-.39.82-.3,1.03-.21.22.09.59.32.59.88v156.55c0,2.83,2.29,5.12,5.12,5.12h24.31c2.83,0,5.12-2.29,5.12-5.12v-284.64c0-2.83-2.29-5.12-5.12-5.12Z"/>
  <path class="cls-1" d="M810.72,711.7h24.31c2.83,0,5.12-2.29,5.12-5.12v-76.56c0-.25.1-.49.28-.67l184.85-184.85v-.02s-.01-20.36-.01-20.36c0-4.03-3.27-7.29-7.3-7.29h-11.49c-1.3,0-3.13.75-4.05,1.68l-160.66,160.66c-.39.39-.82.3-1.03.21-.22-.09-.59-.32-.59-.88v-156.55c0-2.83-2.29-5.12-5.12-5.12h-24.31c-2.83,0-5.12,2.29-5.12,5.12v284.64c0,2.83,2.29,5.12,5.12,5.12Z"/>
  <path class="cls-1" d="M449.43,419.01c-.96-1.37-2.52-2.18-4.19-2.18h-25.76c-2.82,0-5.12,2.3-5.12,5.12v284.09c0,2.82,2.3,5.12,5.12,5.12h24.31c2.82,0,5.12-2.3,5.12-5.12v-224.55c0-.6.42-.83.66-.9.25-.09.71-.14,1.06.35l158.52,228.63c.99,1.42,2.59,2.18,4.2,2.18,1.01,0,1.01.13,9.39.13l28.26-.17h0c2.31-1.62,2.87-4.82,1.27-7.13l-202.85-285.57Z"/>
  <path class="cls-1" d="M734.14,416.83h-24.31c-2.82,0-5.12,2.3-5.12,5.12v224.55c0,.61-.42.83-.66.9-.26.08-.72.13-1.05-.35l-157.98-228.06c-.78-1.12-1.95-1.87-3.3-2.11-1.35-.24-12.79-.08-14.83-.08l-23.61.15c-2.31,1.61-2.88,4.81-1.27,7.12l202.17,284.9c.96,1.37,2.52,2.19,4.19,2.19h25.76c2.82,0,5.12-2.3,5.12-5.12v-284.09c0-2.82-2.3-5.12-5.12-5.12Z"/>
</svg>